<svg xmlns="http://www.w3.org/2000/svg" viewBox="0 0 960 200">
  <path fill="#0f1a15" d="m0 51 16 6c16 5 48 16 80 17 32 0 64-9 96-17a395 395 0 0 1 192-2c32 4 64 8 96 15 32 6 64 17 96 11 32-5 64-27 96-33 32-7 64 0 96 4s64 5 96 4l80-3 16-1v149H0Z"/>
  <path fill="#16221c" d="m0 115 16-5c16-5 48-14 80-17 32-4 64 0 96-1 32 0 64-5 96-5s64 5 96 3 64-11 96-7c32 3 64 19 96 24 32 4 64-1 96-10s64-22 96-23 64 9 96 15c32 7 64 9 80 11l16 1v100H0Z"/>
  <path fill="#1c2a22" d="M0 127h16c16 0 48-1 80-5 32-5 64-15 96-19 32-5 64-4 96 1s64 15 96 20c32 4 64 3 96 4 32 0 64 3 96-3 32-5 64-18 96-20s64 8 96 8c32 1 64-7 96-11s64-3 80-3h16v102H0Z"/>
  <path fill="#233228" d="m0 120 16 7c16 6 48 20 80 23 32 2 64-5 96-11s64-9 96-8c32 2 64 9 96 13s64 4 96 3c32-2 64-5 96-4 32 0 64 6 96 8 32 1 64 0 96-5 32-6 64-14 96-19 32-4 64-5 80-5h16v79H0Z"/>
  <path fill="#2a3b2f" d="m0 165 16-2c16-2 48-7 80-6s64 6 96 11c32 4 64 7 96 5 32-3 64-10 96-13s64-2 96 3c32 4 64 10 96 11 32 0 64-5 96-6 32 0 64 5 96 3s64-10 96-12 64 4 80 6l16 3v33H0Z"/>
</svg>
